<svg xmlns="http://www.w3.org/2000/svg" width="23.684" height="20" viewBox="0 0 23.684 20"><defs><style>.a{fill:#fff;}</style></defs><g transform="translate(-195.036 -189.825)"><path class="a" d="M232.987,209.51l2.482,2.558-.052.091a2.541,2.541,0,0,1-.279.031c-.915,0-1.83,0-2.745,0a.6.6,0,0,1-.531-.25c-.5-.62-1.029-1.218-1.557-1.815a.449.449,0,0,0-.3-.132c-1.125-.009-2.251,0-3.377-.011-.237,0-.307.093-.306.3,0,.522-.01,1.043,0,1.565.006.246-.075.349-.328.346-.668-.01-1.336,0-2,0-.2,0-.277-.123-.278-.3q-.01-1.851-.011-3.7c0-.22.116-.294.332-.294q3.445.008,6.891,0a1.644,1.644,0,0,0,1.119-.34.782.782,0,0,0-.093-1.271,2.1,2.1,0,0,0-1.3-.23c-1.6-.02-3.2,0-4.8.005-.6,0-1.207,0-1.811,0-.062,0-.168-.039-.178-.079a.291.291,0,0,1,.05-.22c.41-.529.849-1.037,1.235-1.583a.716.716,0,0,1,.673-.312c1.455.006,2.91,0,4.364.01a15.607,15.607,0,0,1,1.669.069,4.308,4.308,0,0,1,1.914.624,2.513,2.513,0,0,1,1.237,2.1A2.635,2.635,0,0,1,233.962,209a6.1,6.1,0,0,1-.975.509" transform="translate(-16.749 -8.206)"/><path class="a" d="M216.377,192.182c-.4-.209-.755-.43-1.138-.59-.526-.219-1.067-.407-1.61-.58-.281-.09-.583-.115-.874-.178a8.687,8.687,0,0,0-3.267-.02,9.553,9.553,0,0,0-6.542,4.294.621.621,0,0,1-.3.2,3.371,3.371,0,0,1-.422.1c-.307.073-.612.154-.921.22-.06.013-.132-.028-.2-.044a.737.737,0,0,1,.05-.193,12.4,12.4,0,0,1,.936-1.56,13.038,13.038,0,0,1,1.619-1.69,8.385,8.385,0,0,1,1.637-1.1,15.31,15.31,0,0,1,1.965-.786,8.717,8.717,0,0,1,3.591-.387,7.949,7.949,0,0,1,2.9.7c.668.324,1.324.673,1.975,1.031a4.156,4.156,0,0,1,.585.453c.018.015.006.065.01.14" transform="translate(-3.548)"/><path class="a" d="M224.186,222.433c.257.306.5.583.724.874a.257.257,0,0,1,0,.246,15.34,15.34,0,0,1-1.465,1.557,10.531,10.531,0,0,1-1.836,1.207,8.979,8.979,0,0,1-2.089.741,8.67,8.67,0,0,1-2.466.247,7.042,7.042,0,0,1-2.353-.405c-.491-.2-1.012-.325-1.493-.544a13.716,13.716,0,0,1-1.24-.72c.011-.032.022-.063.032-.094.053,0,.114-.018.156,0a8.016,8.016,0,0,0,3.138.957c.582.027,1.166.107,1.744.078a8.6,8.6,0,0,0,3.34-.84,10.447,10.447,0,0,0,1.274-.708,7.632,7.632,0,0,0,1.867-1.722l.663-.876" transform="translate(-9.894 -19.05)"/><path class="a" d="M218.92,206.106l-.372-.143a1.765,1.765,0,0,1,.154-.328q.611-.816,1.238-1.619a.543.543,0,0,1,.678-.159.266.266,0,0,1,.046.256c-.27.387-.559.761-.844,1.138a4.884,4.884,0,0,1-.439.561,2.439,2.439,0,0,1-.46.294" transform="translate(-13.737 -8.163)"/><path class="a" d="M198.894,208.765c.358-.439.689-.845,1.021-1.251.017-.021.053-.029.063-.051.253-.551.721-.559,1.241-.55,1.39.025,2.782.015,4.172,0,.262,0,.362.1.369.336,0,.118.017.237.017.356q0,2.073,0,4.145c0,.4-.052.45-.459.432-.311-.014-.621-.032-.932-.032-1.5,0-3,.044-4.5,0a5.218,5.218,0,0,1-2.064-.423,5.365,5.365,0,0,1-1.376-.828,3.807,3.807,0,0,1-1.4-3.143,3.7,3.7,0,0,1,1.731-3.05,4.909,4.909,0,0,1,2.715-.859c1.82-.015,3.641-.011,5.461-.02.227,0,.455-.031.682-.031a.34.34,0,0,1,.232.085c.029.031-.008.155-.05.211-.444.6-.884,1.2-1.354,1.779a.671.671,0,0,1-.465.163c-1.363.014-2.727.008-4.09.013a2.332,2.332,0,0,0-1.886.866,1.744,1.744,0,0,0-.344,1.3,1.8,1.8,0,0,0,1.5,1.607,3.569,3.569,0,0,0,.943.12c.924.015,1.849,0,2.772.011.211,0,.277-.062.259-.264-.014-.154,0-.311,0-.466,0-.385-.039-.42-.42-.415q-1.249.017-2.5.027c-.383,0-.766,0-1.149-.006a.821.821,0,0,1-.186-.068" transform="translate(0 -8.164)"/><path class="a" d="M218.012,225.561c-.012.118,0,.192-.025.221a24.115,24.115,0,0,1-1.817,1.807,11.9,11.9,0,0,1-1.888,1.191,4.971,4.971,0,0,1-1.267.465,16.9,16.9,0,0,1-2.278.4,9.969,9.969,0,0,1-2.025-.051,16.254,16.254,0,0,1-1.723-.4,7.987,7.987,0,0,1-2.431-1.158,7.817,7.817,0,0,1-2.291-2.1c-.429-.617-.814-1.264-1.211-1.9-.035-.056-.013-.147-.017-.222a.775.775,0,0,1,.2,0c.432.1.861.22,1.3.306a.727.727,0,0,1,.479.372,9.234,9.234,0,0,0,2.664,2.6,8.977,8.977,0,0,0,2.429,1.12,9.97,9.97,0,0,0,1.946.346,8.24,8.24,0,0,0,1.777-.007,11.155,11.155,0,0,0,2.017-.442,11.27,11.27,0,0,0,1.865-.8,6.129,6.129,0,0,0,1.706-1.243,5.789,5.789,0,0,1,.6-.5" transform="translate(-3.505 -19.844)"/><path class="a" d="M207.821,196.535a9.353,9.353,0,0,1,9.456-3.4,8.961,8.961,0,0,1,5.54,3.759.82.82,0,0,1,.062.248c-.525-.034-1.014-.062-1.5-.1a.34.34,0,0,1-.2-.131,7.974,7.974,0,0,0-2.555-2.075,8.637,8.637,0,0,0-1.409-.558,10,10,0,0,0-2.034-.4,7.956,7.956,0,0,0-2.341.115,8.544,8.544,0,0,0-4.077,1.851c-.267.229-.536.453-.808.675-.024.02-.075.009-.131.013" transform="translate(-7.47 -1.805)"/><path class="a" d="M221.764,206.1c-.127-.056-.284-.077-.313-.151s.039-.218.1-.3c.42-.553.852-1.1,1.279-1.648a.645.645,0,0,1,.7-.128.208.208,0,0,1,.018.2c-.452.615-.905,1.229-1.379,1.827-.082.1-.259.132-.4.2" transform="translate(-15.428 -8.174)"/></g></svg>