<svg xmlns="http://www.w3.org/2000/svg" width="34" height="34" viewBox="0 0 34 34"><path d="M34,17l-2.577-3.865.3-4.635L27.559,6.441,25.5,2.278l-4.635.3L17,0,13.136,2.577,8.5,2.278,6.441,6.441,2.278,8.5l.3,4.635L0,17l2.577,3.864-.3,4.636,4.163,2.059L8.5,31.722l4.636-.3L17,34l3.865-2.577,4.635.3,2.06-4.164L31.722,25.5l-.3-4.636Zm-10.533-.809-1.033,4.183H21.065l-1.627-6.128H20.79l.98,4.165,1.076-4.165h1.264l1.06,4.217,1.015-4.217h1.326l-1.653,6.128H24.517Zm-9.6-1.945h4.6v1.1H15.205v1.333H18.2V17.74H15.205v1.506h3.322v1.128H13.871ZM12.2,20.374H10.859L8.321,16.26v4.115H7.02V14.246H8.389l2.521,4.1v-4.1H12.2Z"/></svg>