<svg xmlns="http://www.w3.org/2000/svg" width="40.5" height="28.225" viewBox="0 0 40.5 28.225"><g transform="translate(250 151.268)"><g transform="translate(-250 -151.268)"><path d="M-229.815-142.578v16.689l13.287-2.521v-8.132a.57.57,0,0,1,.635-.566l1.634.253a.569.569,0,0,1,.5.566v9.447a.569.569,0,0,1-.45.557l-14.545,3.127a5.126,5.126,0,0,1-2.133,0l-14.389-3.027a.57.57,0,0,1-.452-.543l-.249-9.594a.57.57,0,0,1,.52-.582l12.222-1.074a.57.57,0,0,0,.477-.35l1.841-4.472a.57.57,0,0,1,1.1.217Zm-16.295-5.464-3.835,8.2a.57.57,0,0,0,.573.808l14.4-1.455a.57.57,0,0,0,.463-.336l4.635-10.441-15.827,2.907a.57.57,0,0,0-.413.319Zm16.24-3.226,4.9,10.768a.57.57,0,0,0,.473.332l14.377,1.156a.57.57,0,0,0,.564-.8l-3.749-8.22a.57.57,0,0,0-.418-.324Zm0,0" transform="translate(250 151.268)"/></g></g></svg>