<svg xmlns="http://www.w3.org/2000/svg" width="147.543" height="34.585" viewBox="0 0 147.543 34.585"><defs><style>.a{fill:#161615;}.b{fill:#d18332;}</style></defs><g transform="translate(-994.5 -83)"><g transform="translate(994.5 83)"><path class="a" d="M239.756,213.621l4.292,4.423-.09.158a4.407,4.407,0,0,1-.483.053c-1.582,0-3.165-.006-4.747.006a1.041,1.041,0,0,1-.917-.433c-.866-1.073-1.779-2.107-2.693-3.139a.776.776,0,0,0-.516-.228c-1.946-.016-3.893,0-5.839-.019-.41,0-.531.16-.529.523,0,.9-.018,1.8,0,2.706.011.425-.129.6-.567.6-1.155-.017-2.31-.007-3.466-.006-.349,0-.48-.213-.481-.515q-.017-3.2-.019-6.4c0-.381.2-.509.574-.508q5.958.013,11.916.006a2.843,2.843,0,0,0,1.935-.587,1.353,1.353,0,0,0-.16-2.2,3.629,3.629,0,0,0-2.243-.4c-2.768-.034-5.537,0-8.306.009-1.044,0-2.087.005-3.131,0-.108,0-.29-.067-.307-.136a.5.5,0,0,1,.086-.38c.71-.915,1.468-1.794,2.135-2.737a1.238,1.238,0,0,1,1.163-.54c2.516.01,5.031,0,7.547.018a26.981,26.981,0,0,1,2.885.119,7.448,7.448,0,0,1,3.31,1.078,4.345,4.345,0,0,1,2.139,3.636,4.556,4.556,0,0,1-1.808,4.018,10.554,10.554,0,0,1-1.686.88" transform="translate(-203.092 -193.773)"/><path class="a" d="M227.513,193.9c-.688-.361-1.306-.743-1.969-1.02-.91-.379-1.845-.7-2.785-1-.487-.155-1.008-.2-1.511-.307a15.022,15.022,0,0,0-5.65-.035,16.52,16.52,0,0,0-11.313,7.425,1.074,1.074,0,0,1-.512.342,5.833,5.833,0,0,1-.73.17c-.531.127-1.058.267-1.592.381-.1.022-.229-.048-.344-.076a1.273,1.273,0,0,1,.087-.333,21.441,21.441,0,0,1,1.618-2.7,22.549,22.549,0,0,1,2.8-2.922,14.5,14.5,0,0,1,2.831-1.908,26.473,26.473,0,0,1,3.4-1.359,15.073,15.073,0,0,1,6.209-.67,13.747,13.747,0,0,1,5.019,1.206c1.155.56,2.29,1.163,3.414,1.782a7.189,7.189,0,0,1,1.012.784c.031.025.01.113.017.242" transform="translate(-196.742 -189.825)"/><path class="a" d="M233.093,222.433c.444.529.865,1.007,1.252,1.511a.445.445,0,0,1,0,.426,26.536,26.536,0,0,1-2.533,2.693,18.212,18.212,0,0,1-3.175,2.087,15.524,15.524,0,0,1-3.612,1.281,14.993,14.993,0,0,1-4.264.428,12.177,12.177,0,0,1-4.069-.7c-.85-.342-1.751-.562-2.581-.941a23.72,23.72,0,0,1-2.144-1.245c.019-.055.038-.109.056-.163.091,0,.2-.032.27,0a13.861,13.861,0,0,0,5.426,1.655c1.006.047,2.016.185,3.016.134a14.87,14.87,0,0,0,5.776-1.452,18.078,18.078,0,0,0,2.2-1.224,13.2,13.2,0,0,0,3.229-2.977c.359-.475.72-.95,1.146-1.514" transform="translate(-199.795 -198.989)"/><path class="a" d="M219.191,207.79l-.643-.248a3.053,3.053,0,0,1,.266-.567q1.056-1.411,2.14-2.8a.939.939,0,0,1,1.172-.275.459.459,0,0,1,.079.442c-.467.669-.967,1.316-1.459,1.968a8.445,8.445,0,0,1-.76.971,4.213,4.213,0,0,1-.8.508" transform="translate(-201.643 -193.752)"/><path class="b" d="M201.708,212.385c.619-.759,1.191-1.462,1.766-2.163.029-.036.092-.05.109-.088.437-.953,1.247-.967,2.146-.951,2.4.042,4.81.027,7.215,0,.454,0,.626.165.638.581.006.2.029.411.029.615q0,3.585,0,7.168c0,.7-.09.778-.794.748-.537-.024-1.074-.055-1.611-.055-2.6,0-5.192.077-7.784,0a9.023,9.023,0,0,1-3.569-.731,9.279,9.279,0,0,1-2.379-1.432,6.583,6.583,0,0,1-2.429-5.436,6.4,6.4,0,0,1,2.994-5.274,8.488,8.488,0,0,1,4.7-1.486c3.148-.025,6.3-.019,9.443-.034.393,0,.787-.053,1.18-.053a.587.587,0,0,1,.4.147c.05.053-.014.267-.086.365-.767,1.035-1.528,2.076-2.341,3.076a1.16,1.16,0,0,1-.8.281c-2.358.024-4.715.014-7.073.022a4.032,4.032,0,0,0-3.261,1.5,3.015,3.015,0,0,0-.6,2.253,3.117,3.117,0,0,0,2.591,2.778,6.172,6.172,0,0,0,1.631.208c1.6.027,3.2,0,4.794.019.365,0,.48-.106.447-.457-.024-.266,0-.538,0-.807,0-.667-.068-.726-.726-.718q-2.159.029-4.318.047c-.662.005-1.324,0-1.987-.011a1.416,1.416,0,0,1-.321-.117" transform="translate(-195.035 -193.752)"/><path class="b" d="M230.393,226.85c-.02.2.007.331-.043.383a41.7,41.7,0,0,1-3.143,3.125,20.571,20.571,0,0,1-3.265,2.059,8.6,8.6,0,0,1-2.191.8,29.227,29.227,0,0,1-3.94.683,17.239,17.239,0,0,1-3.5-.088,28.1,28.1,0,0,1-2.98-.693,13.812,13.812,0,0,1-4.2-2,13.519,13.519,0,0,1-3.962-3.635c-.742-1.066-1.408-2.186-2.094-3.29-.06-.1-.022-.255-.03-.384a1.341,1.341,0,0,1,.339-.006c.748.173,1.49.38,2.242.53a1.258,1.258,0,0,1,.829.643,15.967,15.967,0,0,0,4.607,4.5,15.523,15.523,0,0,0,4.2,1.937,17.241,17.241,0,0,0,3.366.6,14.247,14.247,0,0,0,3.072-.013,19.291,19.291,0,0,0,3.489-.764,19.486,19.486,0,0,0,3.225-1.383,10.6,10.6,0,0,0,2.951-2.149,10.011,10.011,0,0,1,1.035-.856" transform="translate(-196.721 -199.371)"/><path class="b" d="M207.821,199.175a16.174,16.174,0,0,1,16.351-5.872,15.5,15.5,0,0,1,9.581,6.5,1.416,1.416,0,0,1,.108.428c-.907-.059-1.753-.106-2.6-.179a.588.588,0,0,1-.349-.226,13.789,13.789,0,0,0-4.418-3.588,14.935,14.935,0,0,0-2.436-.965,17.294,17.294,0,0,0-3.518-.69,13.759,13.759,0,0,0-4.048.2,14.775,14.775,0,0,0-7.05,3.2c-.461.4-.928.783-1.4,1.167-.042.035-.129.015-.226.023" transform="translate(-198.628 -190.694)"/><path class="b" d="M222,207.768c-.22-.1-.49-.134-.542-.26s.068-.377.178-.523c.727-.957,1.473-1.9,2.211-2.849a1.115,1.115,0,0,1,1.2-.221.36.36,0,0,1,.031.349c-.781,1.063-1.565,2.125-2.384,3.159-.142.179-.447.228-.7.346" transform="translate(-202.456 -193.757)"/></g><g transform="translate(1043.786 85)"><path class="a" d="M267.19,206.724a8.251,8.251,0,0,0,2.759.423,5.4,5.4,0,0,0,1.994-.383,6.459,6.459,0,0,0,1.717-.993,5.182,5.182,0,0,0,1.205-1.384,3.041,3.041,0,0,0,.456-1.554,2,2,0,0,0-.244-.961,2.361,2.361,0,0,0-.716-.8,3.68,3.68,0,0,0-1.155-.537,5.707,5.707,0,0,0-1.563-.2,6.9,6.9,0,0,0-1.531.163,6.168,6.168,0,0,0-1.253.415,2.863,2.863,0,0,0-.846.57.916.916,0,0,0-.309.626,1.256,1.256,0,0,0,.334.863,1.167,1.167,0,0,0,.92.375,4.032,4.032,0,0,0,1.123-.138,1.42,1.42,0,0,0,.554-.237c.022-.022.019-.062-.008-.121a.106.106,0,0,0-.122-.074.2.2,0,0,1-.162-.057,1.09,1.09,0,0,1-.358-.488,1.008,1.008,0,0,1-.065-.366.8.8,0,0,1,.114-.44.962.962,0,0,1,.31-.3,1.423,1.423,0,0,1,.439-.18,2.175,2.175,0,0,1,.488-.057,1.235,1.235,0,0,1,.749.252,2.481,2.481,0,0,1,.6.651,3.345,3.345,0,0,1,.407.9,3.466,3.466,0,0,1,.147.985,3.157,3.157,0,0,1-.2,1.123,2.668,2.668,0,0,1-.553.9,2.543,2.543,0,0,1-.879.6,3,3,0,0,1-1.172.219,3.53,3.53,0,0,1-1.767-.455,4.369,4.369,0,0,1-1.375-1.229,5.96,5.96,0,0,1-.887-1.807,7.465,7.465,0,0,1-.318-2.206,7.316,7.316,0,0,1,.269-1.994,5.419,5.419,0,0,1,.774-1.669,3.92,3.92,0,0,1,1.245-1.147,3.315,3.315,0,0,1,1.7-.431,2.8,2.8,0,0,1,1.31.317,4.189,4.189,0,0,1,1.066.782,4.035,4.035,0,0,1,.717.968,2.007,2.007,0,0,1,.26.9c0,.076,0,.146-.008.211s-.009.119-.009.163a.081.081,0,0,0,.082.09.455.455,0,0,0,.17-.017.65.65,0,0,0,.171-.073c.054-.032.081-.065.081-.1a10.157,10.157,0,0,1,.391-2.857,4.847,4.847,0,0,1,1.2-2.059.6.6,0,0,0-.073-.334.347.347,0,0,0-.3-.106,1.031,1.031,0,0,0-.374.367,5.359,5.359,0,0,0-.334.577q-.154.31-.276.611t-.188.464q-.472-.147-1.237-.375a6.918,6.918,0,0,0-1.937-.228,7.608,7.608,0,0,0-2.816.513,7.075,7.075,0,0,0-2.263,1.408,6.676,6.676,0,0,0-1.514,2.084,5.946,5.946,0,0,0-.554,2.539,6.263,6.263,0,0,0,.407,2.3,4.978,4.978,0,0,0,1.205,1.807A5.454,5.454,0,0,0,267.19,206.724Z" transform="translate(-263.584 -193.472)"/><path class="a" d="M281.957,207.977a3.14,3.14,0,0,0,1.067.765,3.5,3.5,0,0,0,1.449.285,3.072,3.072,0,0,0,1.025-.171,4.859,4.859,0,0,0,.9-.415,6.757,6.757,0,0,0,.716-.488c.206-.162.369-.293.488-.39l.48-.48a6.728,6.728,0,0,0,.676-.806,5.358,5.358,0,0,0,.594-1.074,3.3,3.3,0,0,0,.252-1.286,3.15,3.15,0,0,0-.309-1.449,2.849,2.849,0,0,0-.814-.984,3.363,3.363,0,0,0-1.164-.562,5.169,5.169,0,0,0-1.36-.18,3.518,3.518,0,0,0-.724.073,6.379,6.379,0,0,0-.651.171,5.343,5.343,0,0,0-.554.212,3.881,3.881,0,0,0-.415.211,6.462,6.462,0,0,0-.8.529,4.41,4.41,0,0,0-.822.83,4.709,4.709,0,0,0-.643,1.164,4.2,4.2,0,0,0-.26,1.531,4.29,4.29,0,0,0,.22,1.383A3.2,3.2,0,0,0,281.957,207.977Zm1.181-4.681a3.274,3.274,0,0,1,.439-.968,2.011,2.011,0,0,1,.643-.61,1.522,1.522,0,0,1,.773-.211,2.16,2.16,0,0,1,1.058.268,2.773,2.773,0,0,1,.855.741,3.6,3.6,0,0,1,.569,1.1,4.371,4.371,0,0,1,.2,1.36,3.741,3.741,0,0,1-.5,2.148,1.642,1.642,0,0,1-1.425.7,2.522,2.522,0,0,1-1.033-.22,2.722,2.722,0,0,1-.887-.635,3.122,3.122,0,0,1-.627-1.017,3.72,3.72,0,0,1-.236-1.367A4.688,4.688,0,0,1,283.137,203.3Z" transform="translate(-268.502 -195.514)"/><path class="a" d="M324.655,206.774q.529-.236.961-.464t.562-.309a.135.135,0,0,0,.024-.065.276.276,0,0,0-.008-.114.386.386,0,0,0-.041-.106c-.016-.027-.03-.035-.04-.024a.841.841,0,0,1-.2.122q-.147.073-.334.146t-.391.131a1.371,1.371,0,0,1-.366.057q-.847,0-.846-1.3c0-.238.014-.51.04-.814s.057-.613.09-.927.062-.619.089-.912.041-.548.041-.766a2.281,2.281,0,0,0-.627-1.782,2.314,2.314,0,0,0-1.6-.562,3.091,3.091,0,0,0-1.042.179,4.929,4.929,0,0,0-.961.464,6.655,6.655,0,0,0-.847.627q-.39.342-.733.668c0-.044.006-.131.017-.261s.019-.268.024-.415.014-.29.024-.431.016-.239.016-.293q0-.537-.472-.537a1.564,1.564,0,0,0-.513.13q-.334.131-.708.31t-.733.39c-.1.057-.178.107-.258.157-.041.022-.084.044-.14.071l-.464.22c-.173.081-.344.16-.513.236a3.424,3.424,0,0,1-.415.163,1.022,1.022,0,0,0,.2-.6.905.905,0,0,0-.5-.815,2.718,2.718,0,0,0-1.375-.293,3.887,3.887,0,0,0-.968.122,4.654,4.654,0,0,0-.912.334,6.172,6.172,0,0,0-.806.472,3.6,3.6,0,0,0-.635.554,5.161,5.161,0,0,0-.415.513,3.38,3.38,0,0,0-.367.684,4.79,4.79,0,0,0-.261.928,7.1,7.1,0,0,0-.1,1.262,3.6,3.6,0,0,0,.3,1.538c.042.09.088.173.136.256-.1.051-.2.1-.316.152a3.178,3.178,0,0,1-.439.155,1.644,1.644,0,0,1-.431.065.844.844,0,0,1-.8-.562,4.391,4.391,0,0,1-.261-1.75q0-.619.025-1.449t.056-1.71q.033-.879.082-1.75t.114-1.587q.064-.716.129-1.205a1.715,1.715,0,0,1,.147-.6.448.448,0,0,1,.171-.155,1.23,1.23,0,0,1,.269-.073.115.115,0,0,0,.1-.1.366.366,0,0,0-.008-.171.324.324,0,0,0-.081-.147.148.148,0,0,0-.138-.041,1.754,1.754,0,0,1-.278.09,2.957,2.957,0,0,1-.431.065c-.178.016-.407.027-.683.032s-.622.008-1.034.008a2.148,2.148,0,0,0-.488.041,1,1,0,0,0-.293.122.244.244,0,0,0-.106.228c.005.1.029.147.073.147a.673.673,0,0,1,.628.26,2.408,2.408,0,0,1,.219.912c0,.054,0,.2.008.423s.011.478.017.749.008.534.008.789v.529c-.119-.011-.25-.017-.39-.017h-.44a7.658,7.658,0,0,0-2.335.326,4.961,4.961,0,0,0-1.726.928,3.885,3.885,0,0,0-1.075,1.465,4.861,4.861,0,0,0-.366,1.92,3.907,3.907,0,0,0,.26,1.465,3.774,3.774,0,0,0,.275.547c-.081.04-.167.081-.258.12a3.851,3.851,0,0,1-.569.2,2.349,2.349,0,0,1-.6.081,1.265,1.265,0,0,1-.716-.228.966.966,0,0,1-.423-.488,2.959,2.959,0,0,1-.09-.757q-.008-.48-.008-.952,0-.424.008-1.026t.032-1.3q.025-.7.049-1.441t.073-1.457q.05-.894.1-1.489t.1-.961a2.6,2.6,0,0,1,.114-.537c.043-.114.092-.182.147-.2a.892.892,0,0,1,.252-.065,1,1,0,0,0,.17-.017.166.166,0,0,0,.106-.1.328.328,0,0,0,.032-.179.356.356,0,0,0-.049-.163.091.091,0,0,0-.106-.049,1.415,1.415,0,0,1-.26.065c-.119.022-.25.041-.391.057l-.431.049a3.684,3.684,0,0,1-.415.024q-.309,0-.773-.008t-.806-.009q-.456,0-.456.538c0,.022.019.032.057.032s.087,0,.147.008a1.623,1.623,0,0,1,.2.032.526.526,0,0,1,.219.122.735.735,0,0,1,.179.252,2.477,2.477,0,0,1,.13.708c.022.26.035.608.041,1.042s.009,1,.009,1.709q0,.864-.024,1.864t-.058,1.938q-.032.936-.089,1.709t-.106,1.181a.835.835,0,0,1-.017.163,1.094,1.094,0,0,1-.032.13.683.683,0,0,1-.073.138.208.208,0,0,0-.041.122c0,.055.038.106.114.155s.179.117.309.2a2.771,2.771,0,0,0,.578.252,1.921,1.921,0,0,0,.562.106,1.42,1.42,0,0,0,.44-.081q.244-.082.553-.2a13.238,13.238,0,0,0,1.278-.538c.4-.192.725-.36.979-.505a3.229,3.229,0,0,0,.242.319,3.039,3.039,0,0,0,.968.708,2.585,2.585,0,0,0,1.075.244,3.235,3.235,0,0,0,1.033-.171,6.186,6.186,0,0,0,1.718-.887,4.759,4.759,0,0,0,.472-.39v.236c0,.1,0,.211-.008.326s-.009.222-.009.326v.219a.405.405,0,0,0,.106.31.6.6,0,0,0,.4.1,3.036,3.036,0,0,0,1.025-.244q.635-.245,1.254-.554.5-.244.92-.464l.331-.178a2.836,2.836,0,0,0,.508.551,3.414,3.414,0,0,0,1.14.619,4.252,4.252,0,0,0,1.3.2,3.922,3.922,0,0,0,1.384-.244,6.184,6.184,0,0,0,1.18-.586,6.784,6.784,0,0,0,.9-.684q.375-.342.554-.537a.164.164,0,0,0-.065-.122.2.2,0,0,0-.13-.057,1.274,1.274,0,0,0-.2.122,4.431,4.431,0,0,1-1.311.554,4.2,4.2,0,0,1-1.058.122,3.392,3.392,0,0,1-1.2-.2,2.821,2.821,0,0,1-.936-.562,2.593,2.593,0,0,1-.61-.838,2.452,2.452,0,0,1-.22-1.034c.1-.054.285-.144.562-.268s.6-.269.976-.432.773-.334,1.2-.513.833-.358,1.229-.537.757-.35,1.082-.513.575-.3.749-.407c.008-.006.014-.014.022-.019a.688.688,0,0,1,.246.085.947.947,0,0,1,.309.3,1.782,1.782,0,0,1,.228.538,3.582,3.582,0,0,1,.106.805c.011.283.019.513.025.692s.007.328.007.447c0,.283-.007.573-.024.871s-.035.587-.058.863-.043.532-.065.766-.044.426-.065.578c-.022.109-.038.2-.049.285a.94.94,0,0,1-.049.2.449.449,0,0,1-.049.081c-.012.011-.017.043-.017.1s.043.1.13.138a.912.912,0,0,0,.358.058,2.353,2.353,0,0,0,.644-.114q.382-.114.741-.26a6.625,6.625,0,0,0,.643-.3,2.734,2.734,0,0,0,.383-.236c.021-.022.024-.063.007-.122s-.035-.09-.056-.09a.991.991,0,0,1-.244.032.528.528,0,0,1-.3-.081.6.6,0,0,1-.2-.3,2.524,2.524,0,0,1-.122-.595,9.133,9.133,0,0,1-.041-.961q0-.358.009-.578c.005-.146.01-.268.016-.366s.014-.184.024-.261.022-.163.032-.26a3.629,3.629,0,0,1,.212-.92,2.673,2.673,0,0,1,.439-.765,2.054,2.054,0,0,1,.667-.529,1.981,1.981,0,0,1,.9-.2,1.581,1.581,0,0,1,1.327.741,3.731,3.731,0,0,1,.528,2.173q0,.733-.057,1.368t-.122,1.107q-.066.44-.106.635a1.632,1.632,0,0,0-.04.326.6.6,0,0,0,.138.374.615.615,0,0,0,.513.18,2.642,2.642,0,0,0,.83-.188Q324.125,207.01,324.655,206.774Zm-19.8-3.338q0,.5-.032.838a3.676,3.676,0,0,1-.1.643,1.267,1.267,0,0,1-.2.416.908.908,0,0,1-.178.195,2.333,2.333,0,0,1-.3.22,1.923,1.923,0,0,1-.383.179,1.379,1.379,0,0,1-.455.073,2.578,2.578,0,0,1-1.14-.252,2.623,2.623,0,0,1-.9-.708,3.388,3.388,0,0,1-.586-1.083,4.315,4.315,0,0,1-.211-1.392,4.212,4.212,0,0,1,.163-1.261,2.312,2.312,0,0,1,.448-.838,1.664,1.664,0,0,1,.675-.472,2.348,2.348,0,0,1,.83-.147,3.521,3.521,0,0,1,.871.106,2.876,2.876,0,0,1,.724.285,1.775,1.775,0,0,1,.5.423,1.018,1.018,0,0,1,.228.521q.016.163.024.586t.008.8Zm7.489-1.75a3.015,3.015,0,0,1-.423.26q-.278.147-.611.309t-.684.3c-.234.093-.442.171-.627.236a5.5,5.5,0,0,1,.155-1.408,3.256,3.256,0,0,1,.382-.928,1.569,1.569,0,0,1,.489-.5.966.966,0,0,1,.488-.154,1.044,1.044,0,0,1,.472.106,1.138,1.138,0,0,1,.358.276,1.162,1.162,0,0,1,.219.383,1.247,1.247,0,0,1,.074.408A.823.823,0,0,1,312.34,201.687Z" transform="translate(-272.097 -193.84)"/><path class="a" d="M342.994,207.423q.13,0,.806-.089a16.6,16.6,0,0,1,2.01-.09q1.042,0,1.856.057t1.286.041a.471.471,0,0,0,.261-.057.167.167,0,0,0,.081-.139c0-.108-.074-.179-.22-.211a3.366,3.366,0,0,0-.545-.065c-.218-.012-.448-.03-.692-.058a1.578,1.578,0,0,1-.659-.219,5.327,5.327,0,0,1-.179-1.278q-.032-.789-.032-1.62v-1.368a.791.791,0,0,0,.1-.008,1.28,1.28,0,0,1,.163-.008h.375q.244,0,.529.024t.594.081a2.273,2.273,0,0,1,.554.171,4.928,4.928,0,0,1,1.05.773,14.5,14.5,0,0,1,1.018,1.058q.488.562.92,1.1t.757.9q.439.489.936.945a7.664,7.664,0,0,0,1.041.805,5.576,5.576,0,0,0,1.14.562,3.691,3.691,0,0,0,1.246.211q1.285,0,1.612-.733c-.012-.055-.025-.109-.041-.162a.1.1,0,0,0-.106-.081.217.217,0,0,0-.131.048.553.553,0,0,1-.211.261,1.125,1.125,0,0,1-.317.146,1.862,1.862,0,0,1-.359.065c-.124.011-.236.017-.334.017a2.248,2.248,0,0,1-1.36-.448,5.549,5.549,0,0,1-1.107-1.091,11.268,11.268,0,0,1-.9-1.351q-.4-.709-.725-1.229c.076-.109.127-.187.155-.236a.715.715,0,0,0,.041-.3,1.769,1.769,0,0,0-.416-.814,2.777,2.777,0,0,0-.8-.61,4.516,4.516,0,0,0-1.074-.391,5.572,5.572,0,0,0-1.262-.138,7.882,7.882,0,0,0,1.123-.578,5.856,5.856,0,0,0,1.107-.871,4.9,4.9,0,0,0,.838-1.115,2.725,2.725,0,0,0,.334-1.327,2.487,2.487,0,0,0-.326-1.286,2.905,2.905,0,0,0-.871-.928,3.986,3.986,0,0,0-1.278-.562,6.252,6.252,0,0,0-1.547-.187,4.924,4.924,0,0,0-1.033.114q-.53.114-1,.26t-.831.293c-.239.1-.413.174-.521.228a.592.592,0,0,1-.26.049,17.256,17.256,0,0,1-1.734-.073c-.472-.049-.806-.073-1-.073-.174,0-.26.07-.26.211,0,.12.078.2.236.228a4.288,4.288,0,0,0,.562.073q.326.025.667.065a1.217,1.217,0,0,1,.554.187,3.892,3.892,0,0,1,.09.5q.04.326.081.887t.057,1.4q.016.839.017,2.043,0,1.319-.024,2.157t-.073,1.4q-.05.562-.114.936t-.163.733q-.229.082-.456.139a3.956,3.956,0,0,1-.586.089q-.537.082-.733.1a.2.2,0,0,0-.2.228.179.179,0,0,0,.082.155A.328.328,0,0,0,342.994,207.423Zm3.989-7.138q.016-.709.048-1.368t.081-1.213a5.469,5.469,0,0,1,.131-.863l.049-.277a.887.887,0,0,1,.277-.4,2.5,2.5,0,0,1,.488-.334,3.294,3.294,0,0,1,.562-.236,1.732,1.732,0,0,1,.513-.09,1.55,1.55,0,0,1,.8.22,2.008,2.008,0,0,1,.651.635,3.473,3.473,0,0,1,.44.993,4.841,4.841,0,0,1,.162,1.311,3.392,3.392,0,0,1-.13.953,4.412,4.412,0,0,1-.317.805,4.054,4.054,0,0,1-.391.619,1.866,1.866,0,0,1-.366.374,1.631,1.631,0,0,1-.595.293,3.217,3.217,0,0,1-.789.081q-.537,0-1-.017a1.121,1.121,0,0,1-.627-.146Q346.966,200.993,346.983,200.285Z" transform="translate(-285.821 -193.911)"/><path class="a" d="M367.071,207.562l.48-.48a6.734,6.734,0,0,0,.676-.806,5.356,5.356,0,0,0,.594-1.074,3.3,3.3,0,0,0,.252-1.286,3.14,3.14,0,0,0-.309-1.449,2.848,2.848,0,0,0-.814-.984,3.356,3.356,0,0,0-1.164-.562,5.161,5.161,0,0,0-1.36-.18,3.518,3.518,0,0,0-.724.073,6.384,6.384,0,0,0-.651.171,5.41,5.41,0,0,0-.554.212,3.959,3.959,0,0,0-.415.211,6.405,6.405,0,0,0-.8.529,4.411,4.411,0,0,0-.823.83,4.707,4.707,0,0,0-.643,1.164,4.184,4.184,0,0,0-.26,1.531,4.291,4.291,0,0,0,.219,1.383,3.2,3.2,0,0,0,.651,1.132,3.137,3.137,0,0,0,1.066.765,3.506,3.506,0,0,0,1.449.285,3.069,3.069,0,0,0,1.025-.171,4.835,4.835,0,0,0,.9-.415,6.754,6.754,0,0,0,.716-.488C366.789,207.79,366.952,207.659,367.071,207.562Zm-1.839.26a2.523,2.523,0,0,1-1.034-.22,2.729,2.729,0,0,1-.887-.635,3.133,3.133,0,0,1-.627-1.017,3.72,3.72,0,0,1-.236-1.367,4.685,4.685,0,0,1,.162-1.286,3.255,3.255,0,0,1,.44-.968,2.01,2.01,0,0,1,.643-.61,1.524,1.524,0,0,1,.773-.211,2.158,2.158,0,0,1,1.058.268,2.765,2.765,0,0,1,.855.741,3.573,3.573,0,0,1,.569,1.1,4.371,4.371,0,0,1,.2,1.36,3.735,3.735,0,0,1-.5,2.148A1.641,1.641,0,0,1,365.232,207.822Z" transform="translate(-290.835 -195.514)"/><path class="a" d="M392.512,205.61q-.065-.147-.147-.082a1.535,1.535,0,0,1-.252.155c-.114.06-.239.12-.374.18a3.212,3.212,0,0,1-.439.155,1.646,1.646,0,0,1-.432.065.845.845,0,0,1-.8-.562,4.393,4.393,0,0,1-.26-1.75q0-.619.024-1.449t.057-1.71q.032-.879.081-1.75t.114-1.587c.043-.477.087-.879.129-1.205a1.693,1.693,0,0,1,.147-.6.446.446,0,0,1,.17-.155,1.242,1.242,0,0,1,.269-.073.116.116,0,0,0,.1-.1.376.376,0,0,0-.009-.171.318.318,0,0,0-.081-.147.148.148,0,0,0-.138-.041,1.744,1.744,0,0,1-.277.09,2.958,2.958,0,0,1-.431.065q-.269.024-.684.032t-1.034.008a2.149,2.149,0,0,0-.488.041,1,1,0,0,0-.293.122.247.247,0,0,0-.106.228c.005.1.03.147.073.147a.672.672,0,0,1,.627.26,2.4,2.4,0,0,1,.219.912c0,.054,0,.2.009.423s.01.478.016.749.009.534.009.789v.529c-.119-.011-.25-.017-.391-.017h-.439a7.66,7.66,0,0,0-2.336.326,4.961,4.961,0,0,0-1.726.928,3.893,3.893,0,0,0-1.075,1.465,4.874,4.874,0,0,0-.366,1.92,3.921,3.921,0,0,0,.26,1.465,3.84,3.84,0,0,0,.175.349c-.089.05-.182.1-.289.148a3.272,3.272,0,0,1-.407.155,1.345,1.345,0,0,1-.39.065.741.741,0,0,1-.627-.366,3.159,3.159,0,0,1-.415-.961,8.51,8.51,0,0,1-.244-1.368q-.082-.773-.131-1.6-.032-.553-.073-1.034a2.3,2.3,0,0,0-.22-.838,1.246,1.246,0,0,0-.546-.554,2.273,2.273,0,0,0-1.05-.2A4.4,4.4,0,0,0,377,199.2a10.553,10.553,0,0,0-1.148.35c-.386.141-.757.293-1.116.456s-.661.315-.911.456a.445.445,0,0,0-.032.2.493.493,0,0,0,.195.39.647.647,0,0,0,.423.162.133.133,0,0,0,.147-.13.8.8,0,0,1,.138-.277,1.743,1.743,0,0,1,.342-.358,2.221,2.221,0,0,1,.521-.309,1.641,1.641,0,0,1,.659-.13,1.524,1.524,0,0,1,.684.138,1.3,1.3,0,0,1,.472.407,2.4,2.4,0,0,1,.325.668,7.566,7.566,0,0,1,.229.9q-.229.147-.725.4t-1.075.529q-.577.277-1.131.545c-.37.179-.657.324-.863.431a3.927,3.927,0,0,0-.985.692,1.19,1.19,0,0,0-.318.854,1.859,1.859,0,0,0,.106.627,1.43,1.43,0,0,0,.325.529,1.625,1.625,0,0,0,.546.366,1.937,1.937,0,0,0,.765.139,3.169,3.169,0,0,0,1.083-.2,7.929,7.929,0,0,0,1.1-.5,8.961,8.961,0,0,0,.993-.626q.456-.334.749-.578.065.407.147.782a4.184,4.184,0,0,0,.195.659,1.484,1.484,0,0,0,.269.455.477.477,0,0,0,.366.171,1.531,1.531,0,0,0,.488-.114,7.314,7.314,0,0,0,.676-.293q.367-.179.741-.383t.684-.382q.307-.178.518-.308a3.3,3.3,0,0,0,.352.462,3.047,3.047,0,0,0,.968.708,2.588,2.588,0,0,0,1.075.244,3.243,3.243,0,0,0,1.034-.171,6.186,6.186,0,0,0,1.718-.887,4.651,4.651,0,0,0,.472-.39v.236c0,.1,0,.211-.008.326s-.008.222-.008.326v.219a.4.4,0,0,0,.106.31.6.6,0,0,0,.4.1,3.04,3.04,0,0,0,1.025-.244q.634-.245,1.254-.554.5-.244.92-.464t.61-.334C392.551,205.773,392.556,205.707,392.512,205.61Zm-14.17-.708c-.049.06-.116.133-.2.219a2.322,2.322,0,0,1-.293.228,4.651,4.651,0,0,1-1.116.554,1.981,1.981,0,0,1-.643.114,1.021,1.021,0,0,1-.863-.358,1.318,1.318,0,0,1-.277-.83.909.909,0,0,1,.2-.586,2.4,2.4,0,0,1,.569-.489q.2-.129.489-.285c.195-.1.4-.206.618-.309s.434-.2.651-.285.413-.163.587-.228c.011.043.03.136.057.277s.057.309.089.5.065.4.1.619.065.418.1.6A.333.333,0,0,1,378.342,204.9Zm9.971-1.465q0,.5-.033.838a3.617,3.617,0,0,1-.1.643,1.3,1.3,0,0,1-.2.416.914.914,0,0,1-.179.195,2.288,2.288,0,0,1-.3.22,1.933,1.933,0,0,1-.383.179,1.387,1.387,0,0,1-.456.073,2.579,2.579,0,0,1-1.14-.252,2.621,2.621,0,0,1-.9-.708,3.375,3.375,0,0,1-.586-1.083,4.315,4.315,0,0,1-.212-1.392A4.209,4.209,0,0,1,384,201.3a2.31,2.31,0,0,1,.447-.838,1.661,1.661,0,0,1,.676-.472,2.342,2.342,0,0,1,.83-.147,3.519,3.519,0,0,1,.871.106,2.869,2.869,0,0,1,.725.285,1.772,1.772,0,0,1,.5.423,1.007,1.007,0,0,1,.228.521q.016.163.024.586t.009.8Z" transform="translate(-294.284 -193.84)"/><rect class="a" width="1.104" height="1.435" transform="translate(3.076 29.992)"/><rect class="a" width="1.104" height="1.435" transform="translate(4.8 29.992)"/><rect class="a" width="1.104" height="1.448" transform="translate(56.417 20.266)"/><rect class="a" width="1.104" height="1.448" transform="translate(54.693 20.266)"/><path class="a" d="M327.087,229.622h1.228v-8.884l-1.228.179Z" transform="translate(-281.429 -201.134)"/><rect class="a" width="1.09" height="1.435" transform="translate(73.342 30.006)"/><path class="a" d="M386.358,226.822c0,1.062-.4,1.6-1.49,1.6h-1.227a3.794,3.794,0,0,0,.455-1.973c0-2.166-1.2-3.146-2.787-3.146a5.346,5.346,0,0,0-4,2.718v-4.856l-1.242.193v7.063H374.26a3.078,3.078,0,0,1-1.476-.373v-3.2l-1.241.193v4.069c0,1.338-.552,1.959-1.835,1.959-.138,0-.718-.041-.856-.041l.538,1.214h.359c2.028,0,2.98-.952,3.035-2.883a4.574,4.574,0,0,0,1.531.262H385.1v-.007a2.265,2.265,0,0,0,2.5-2.573v-6.3l-1.241.18Zm-5.118,1.6H377.3c1.076-2.566,3.048-3.918,4-3.918s1.49.608,1.49,1.946C382.785,227.7,382.3,228.423,381.24,228.423Z" transform="translate(-293.166 -201.134)"/><path class="a" d="M357.171,227.868c0,1.062-.4,1.6-1.49,1.6H342.206v-1.89a2.121,2.121,0,0,0-2.166-2.345,2.322,2.322,0,0,0-2.414,2.317,2.688,2.688,0,0,0,.124.828,3.34,3.34,0,0,0,3.228,2.29v.344a16.829,16.829,0,0,1-2.386.193c-1.2,0-2.276-.372-2.276-1.987v-3.807l-1.228,1.31v2.593c0,2.47,1.669,3.063,3.559,3.063a19.4,19.4,0,0,0,2.042-.165,3.143,3.143,0,0,0,.51-.069c.276-.042.759-.083,1.007-.124v-1.352h13.669v-.005a2.272,2.272,0,0,0,2.539-2.575v-3.628l-1.242.193Zm-16.194,1.6a1.923,1.923,0,0,1-2.056-1.421,2.111,2.111,0,0,1-.055-.469,1.116,1.116,0,0,1,1.049-1.173c.455,0,.91.386,1.062,1.173Z" transform="translate(-283.677 -202.18)"/><rect class="a" width="1.104" height="1.435" transform="translate(71.618 30.006)"/><rect class="a" width="1.255" height="1.504" transform="translate(22.374 29.992)"/><path class="a" d="M293.192,224.384a5.8,5.8,0,0,0-2.152.455l.317,1.159a4.534,4.534,0,0,1,1.821-.4,2.3,2.3,0,0,1,2.249,2.511v1.339h-1.145v-.331c0-1.766-.91-2.263-1.835-2.263s-1.835.5-1.835,2.263v.331h-1.958a2.853,2.853,0,0,1-1.393-.331,4.393,4.393,0,0,0,.138-1.048v-3.628l-1.242.193v3.215c0,1.062-.359,1.6-1.449,1.6H274.515c-.565,0-1.145-.028-1.3-.7l-.5-2.138a2.366,2.366,0,0,0-2.621-2.125h-1.669l.234.925c.055.179.069.234.083.275.042.166.152.441.925,3.629a11.052,11.052,0,0,1-1.849.124c-1.311,0-1.835-.62-1.835-1.958V224.4l-1.255,1.311V227.6c0,2.028.952,3.036,3.035,3.036a13.7,13.7,0,0,0,3.38-.4l-1.117-4.594h.4c.676,0,.966.441,1.186,1.545l.414,1.849c.322,1.532,1.6,1.611,2.482,1.613H284.86v0a2.954,2.954,0,0,0,1.752-.506,4.272,4.272,0,0,0,2.1.51h7.959v-2.621A3.388,3.388,0,0,0,293.192,224.384Zm-.138,5.063h-1.227v-.331c0-.5.055-1.048.62-1.048s.607.593.607,1.048Z" transform="translate(-263.907 -202.159)"/><path class="a" d="M397.094,229.622h1.228v-8.884l-1.228.179Z" transform="translate(-301.102 -201.134)"/><path class="a" d="M319.86,226.822c0,1.062-.4,1.6-1.49,1.6H316.7l-.441-2.332c-.372-2.028-1.338-2.317-3.09-2.317l-.055,1.158c1.255.042,1.683.083,1.945,1.49l.4,2h-3.518l-.607,1.2h7.27v-.007a2.265,2.265,0,0,0,2.5-2.573v-6.3l-1.242.18Z" transform="translate(-277.003 -201.134)"/><rect class="a" width="1.255" height="1.504" transform="translate(36.402 19.701)"/></g></g></svg>